<svg width="18" height="18" viewBox="0 0 18 18" fill="none" xmlns="http://www.w3.org/2000/svg">
<path d="M13.5233 12.4626L16.7353 15.6746L15.6746 16.7353L12.4626 13.5233C11.3077 14.4473 9.843 15 8.25 15C4.524 15 1.5 11.976 1.5 8.25C1.5 4.524 4.524 1.5 8.25 1.5C11.976 1.5 15 4.524 15 8.25C15 9.843 14.4473 11.3077 13.5233 12.4626ZM12.0185 11.9061C12.9356 10.9609 13.5 9.6717 13.5 8.25C13.5 5.34937 11.1506 3 8.25 3C5.34937 3 3 5.34937 3 8.25C3 11.1506 5.34937 13.5 8.25 13.5C9.6717 13.5 10.9609 12.9356 11.9061 12.0185L12.0185 11.9061Z" fill="#A1A1A1"/>
</svg>
